# xmcd
#
# Track frame offsets:
#	150
#	12207
#	23232
#	35540
#	46237
#	56955
#	69175
#	81547
#	92387
#	102007
#	114822
#	125865
#	137882
#	149410
#	159067
#	170497
#	180160
#	188930
#	200347
#	211925
#
# Disc length: 2994 seconds
#
# Revision: 2
# Processed by: cddbd v1.5.2PL0 Copyright (c) Steve Scherf et al.
# Submitted via: EasyCDDAExtractor 15.2.5.1
#
DISCID=0b0bb014
DTITLE=Don Gibson - 20 Of The Best
DYEAR=1991
DGENRE=Country
TTITLE0=I Can't Stop Loving You
TTITLE1=A Legend In My Time
TTITLE2=Just One Time
TTITLE3=I Think It's Best
TTITLE4=Lonsome Number One
TTITLE5=God Walks These Hills With Me
TTITLE6=Half As Much
TTITLE7=Tennessee Waltz
TTITLE8=Bonaparts Retreat
TTITLE9=Almost Persuaded
TTITLE10=Little Bitty Tear
TTITLE11=Four Walls
TTITLE12=Here Comes My Baby
TTITLE13=Easy To Forget
TTITLE14=Oh Lonesome Me
TTITLE15=It's My Way
TTITLE16=Blue, Blue Day
TTITLE17=It's A Sin
TTITLE18=Sea Of Heartbreak
TTITLE19=Where No One Stands Alone
EXTD=
EXTT0=
EXTT1=
EXTT2=
EXTT3=
EXTT4=
EXTT5=
EXTT6=
EXTT7=
EXTT8=
EXTT9=
EXTT10=
EXTT11=
EXTT12=
EXTT13=
EXTT14=
EXTT15=
EXTT16=
EXTT17=
EXTT18=
EXTT19=
PLAYORDER=
